<?xml version="1.0" encoding="utf-8" ?>
<svg baseProfile="tiny" height="100%" version="1.2" width="100%" xmlns="http://www.w3.org/2000/svg" xmlns:ev="http://www.w3.org/2001/xml-events" xmlns:xlink="http://www.w3.org/1999/xlink"><defs /><polyline fill="none" id="id_" points="142,619 142,619 142,621 142,622 142,623 142,624 142,625 142,626 141,627 141,628 141,629 141,630 141,631 141,632 141,633 141,634 141,635 141,636 141,637 141,638 141,639 141,640 141,641 141,642 142,643 142,644 142,645 142,646 142,647 142,648 142,649 141,650 141,651 140,652 140,653 140,654 140,655 140,656 140,657 140,658 140,659 140,660 140,661 140,662 140,663 140,664 140,665 140,666 140,667 140,668 140,669 140,670 140,671 140,672 141,673 141,674 141,675 141,676 140,677 140,678 140,679 140,680 140,681 140,682 140,683 140,684 140,685 140,686 140,687 141,688 141,689 141,690 141,691 141,692 140,693 140,694 139,695 139,696 139,697 139,698 139,699 139,700 139,701 139,702 139,703 139,704 139,705 139,706 139,707 139,708 139,709 139,710 139,711 140,712 140,713 139,714 139,715 139,716 139,717 139,718 139,719 139,720 139,721 139,722 139,723 139,724 139,725 139,726 139,727 139,728 139,729 139,730 139,731 140,732 141,733 142,734 143,734 144,734 145,734 146,734 147,734 148,734 149,734 150,733 151,733 152,732 153,731 154,731 155,731 156,731 157,731 158,731 159,731 160,731 161,731 162,731 163,731 164,731 165,731 166,731 167,731 168,731 169,731 170,731 171,731 172,731 173,731 174,731 175,731 176,731 177,731 178,731 179,731 180,732 181,732 182,732 183,732 184,732 185,732 186,731 187,731 188,731 189,731 190,731 191,731 192,731 193,731 194,731 195,731 196,731 197,731 198,731 199,731 200,731 201,731 202,732 203,732 204,732 205,732 206,731 207,731 208,731 209,731 210,731 211,731 212,732 213,732 214,732 215,732 216,732 217,732 218,732 219,733 220,734 221,734 222,735 223,735 224,735 225,735 226,735 227,735 228,734 229,734 230,733 231,732 232,731 233,731 234,731 235,731 236,731 237,731 238,731 239,731 240,731 241,731 242,731 243,731 244,731 245,731 246,731 247,731 248,732 249,732 250,732 251,732 252,732 253,732 254,732 255,732 256,732 257,732 258,732 259,732 260,732 261,732 262,731 263,731 264,731 265,731 266,731 267,731 268,731 269,731 270,731 271,731 272,731 273,731 274,731 275,731 276,731 277,731 278,731 279,731 280,732 281,732 282,732 283,732 284,732 285,732 286,732 287,732 288,732 289,732 290,732 291,732 292,732 293,732 294,732 295,732 296,732 297,732 298,732 299,732 300,732 301,732 302,732 303,732 304,732 305,732 306,732 307,732 308,732 309,732 310,732 311,732 312,732 313,732 314,732 315,732 316,732 317,732 318,732 319,731 320,731 321,731 322,731 323,731 324,731 325,731 326,731 327,731 328,731 329,731 330,731 331,731 332,731 333,731 334,731 335,732 336,732 337,732 338,732 339,732 340,732 341,732 342,732 343,732 344,732 345,732 346,732 347,732 348,732 349,732 350,731 351,731 352,731 353,731 354,731 355,731 356,731 357,731 358,731 359,731 360,731 361,732 362,732 363,732 364,732 365,732 366,732 367,731 368,731 369,731 370,731 371,731 372,731 373,731 374,731 375,732 376,732 377,732 378,732 379,732 380,732 381,732 382,732 383,732 384,731 385,731 386,731 387,730 388,730 389,730 390,730 391,730 392,731 393,731 394,731 395,732 396,732 397,732 398,732 399,732 400,732 401,732 402,732 403,732 404,732 405,732 406,732 407,732 408,732 409,732 410,731 411,731 412,731 413,731 414,731 415,731 416,731 417,731 418,731 419,731 420,731 421,731 422,732 423,732 424,733 425,734 426,735 427,735 428,735 429,734 430,734 431,734 432,734 433,733 434,733 435,732 436,732 437,732 438,732 439,731 440,731 441,731 442,731 443,731 444,731 445,731 446,731 447,731 448,732 449,732 450,731 451,731 452,731 453,731 454,731 455,731 456,732 457,732 458,732 459,732 460,732 461,732 462,732 463,732 464,732 465,732 466,732 467,732 468,731 469,731 470,731 471,731 472,732 473,732 474,732 475,732 476,732 477,732 478,732 479,731 480,732 481,733 482,734 483,735 484,735 485,735 486,735 487,735 488,735 489,735 490,735 491,734 492,733 492,732 493,731 493,730 493,729 493,728 494,727 494,726 494,725 493,724 493,723 493,722 493,721 494,720 494,719 494,718 493,717 493,716 493,715 493,714 493,713 493,712 493,711 494,710 494,709 494,708 494,707 494,706 494,705 494,704 493,703 493,702 493,701 493,700 493,699 493,698 492,697 492,696 492,695 492,694 492,693 492,692 492,691 492,690 493,689 493,688 493,687 493,686 493,685 493,684 493,683 492,682 492,681 492,680 492,679 492,678 492,677 492,676 492,675 492,674 492,673 491,672 491,671 491,670 491,669 491,668 491,667 491,666 491,665 491,664 490,663 490,662 490,661 490,660 490,659 490,658 491,657 491,656 490,655 490,654 490,653 490,652 490,651 490,650 490,649 490,648 489,647 489,646 489,645 489,644 489,643 489,642 489,641 489,640 488,639 488,638 488,637 488,636 488,635 487,634 487,633 487,632 487,631 487,630 487,629 487,628 487,627 487,626 486,625 486,624 486,623 486,622 486,621 486,620 485,619 485,618 485,617 485,616 484,615 484,614 484,613 483,612 483,611 483,610 483,609 483,608 483,607 482,606 482,605 482,604 482,603 482,602 481,601 481,600 481,599 481,598 480,597 480,596 480,595 479,594 479,593 479,592 479,591 478,590 478,589 478,588 478,587 477,586 477,585 476,584 476,583 476,582 475,581 475,580 475,579 475,578 475,577 474,576 474,575 473,574 473,573 472,572 472,571 472,570 472,569 471,568 471,567 470,566 470,565 469,564 469,563 469,562 468,561 468,560 467,559 467,558 466,557 466,556 465,555 464,554 464,553 463,552 463,551 462,550 462,549 461,548 461,547 460,546 460,545 460,544 459,542 459,542 459,542 460,541 460,540 460,539 460,538 461,537 461,536 461,535 461,534 462,533 462,532 462,531 462,530 463,529 463,528 463,527 463,526 463,525 463,524 463,523 464,522 464,521 464,520 465,519 465,518 465,517 465,516 465,515 465,514 465,513 465,512 465,511 465,510 465,509 465,508 464,507 464,506 464,505 464,504 464,503 464,502 464,501 465,500 465,499 465,498 465,497 464,496 464,495 464,494 464,493 464,492 464,491 463,490 463,489 463,488 463,487 463,486 462,485 462,484 462,483 462,482 462,481 462,480 461,479 461,478 461,477 461,476 461,475 461,474 460,473 460,472 460,471 460,470 460,469 460,468 460,467 460,466 460,465 460,464 460,463 460,462 460,461 460,460 460,459 460,458 460,457 460,456 460,455 460,454 460,453 460,452 460,451 460,450 460,449 460,448 460,447 460,446 460,445 460,444 460,443 460,442 460,441 460,440 459,439 459,439 459,439 460,438 461,437 462,436 463,435 464,434 465,434 466,433 467,432 468,431 469,430 470,429 471,428 472,427 473,426 474,425 474,424 475,423 475,422 476,421 477,420 478,419 478,418 479,417 479,416 479,415 480,414 481,413 482,412 483,411 484,410 484,409 485,408 485,407 485,406 486,405 486,404 487,403 487,402 488,401 488,400 488,399 489,398 489,397 489,396 490,395 490,394 491,393 491,392 491,391 491,390 491,389 492,388 492,387 492,386 493,385 493,384 493,383 493,382 494,381 494,380 494,379 494,378 494,377 494,376 494,375 494,374 494,373 494,372 494,371 494,370 494,369 494,368 494,367 495,366 495,365 495,364 496,363 496,362 496,361 496,360 496,359 496,358 496,357 496,356 496,355 496,354 496,353 496,352 496,351 496,350 496,349 496,348 496,347 496,346 496,345 497,344 497,343 497,342 497,341 498,340 498,339 497,338 497,337 497,336 497,335 497,334 498,332 498,332 498,332 500,331 501,330 501,329 502,328 503,327 503,326 504,325 504,324 505,323 505,322 506,321 506,320 506,319 506,318 507,317 507,316 508,315 508,314 509,313 509,312 509,311 509,310 510,309 510,308 510,307 511,306 511,305 511,304 511,303 511,302 512,301 512,300 512,299 513,298 513,297 513,296 513,295 514,294 514,293 514,292 514,291 515,290 515,289 515,288 515,287 515,286 516,285 516,284 516,283 516,282 516,281 517,280 517,279 517,278 517,277 518,276 518,275 518,274 518,273 518,272 518,271 519,270 519,269 519,268 520,267 520,266 520,265 520,264 521,263 521,262 521,261 521,260 521,259 521,258 521,257 521,256 521,255 521,254 521,253 521,252 521,251 522,250 522,249 522,248 522,247 522,246 522,245 522,244 522,243 522,242 523,241 523,240 523,239 523,238 523,237 523,236 523,235 523,234 523,233 524,232 524,231 524,230 524,229 524,228 524,227 524,226 523,225 523,224 523,223 523,222 523,221 523,220 524,219 524,218 524,217 524,216 524,215 524,214 524,213 524,212 524,211 524,210 524,209 524,208 523,207 523,206 523,205 523,204 523,203 523,202 523,201 523,200 523,199 523,198 522,197 522,196 522,195 522,194 522,193 522,192 522,191 521,190 521,189 521,188 521,187 521,186 520,185 520,184 520,183 520,182 520,181 520,180 520,179 520,178 520,177 520,176 519,175 519,174 519,173 519,172 519,171 519,170 518,169 518,168 518,167 517,166 517,165 516,164 516,163 516,162 515,161 515,160 515,159 515,158 515,157 515,156 515,155 515,154 514,153 514,152 514,151 513,150 513,149 513,148 512,147 512,146 512,145 511,144 511,143 511,142 511,141 511,140 510,139 510,138 510,137 509,136 509,135 508,134 508,133 507,132 507,131 506,130 506,129 506,128 506,127 505,126 505,125 504,124 504,123 503,122 502,121 502,120 501,119 501,118 500,117 500,116 499,115 499,114 498,113 498,112 497,111 497,110 496,109 496,108 495,107 494,106 494,105 493,104 492,103 492,102 491,101 491,100 490,99 490,98 489,97 488,96 488,95 487,94 486,93 485,92 485,91 484,90 483,89 482,88 482,87 481,86 480,85 479,84 478,83 477,82 476,81 476,80 475,79 474,78 473,77 472,76 471,75 471,74 470,73 469,72 468,71 467,70 466,69 465,68 464,67 463,66 462,66 461,65 460,64 459,63 458,62 457,61 456,60 455,59 454,58 453,58 452,57 451,56 450,55 449,54 448,53 447,52 446,52 445,51 444,51 443,50 442,49 441,48 440,48 439,47 438,46 437,45 436,45 435,44 434,44 433,43 432,43 431,42 430,42 429,42 428,41 427,41 426,41 425,40 424,39 423,39 422,38 421,37 420,36 419,36 418,35 417,34 416,34 415,33 414,32 413,31 412,31 411,30 410,30 409,30 408,30 407,29 406,29 405,29 404,29 403,28 402,28 401,27 400,27 399,26 398,26 397,26 396,25 395,25 394,25 393,24 392,24 391,24 390,23 389,23 388,22 387,22 386,22 385,22 384,21 383,21 382,21 381,21 380,21 379,21 378,20 377,20 376,20 375,20 374,19 373,19 372,18 371,18 370,18 369,18 368,17 367,17 366,17 365,17 364,17 363,17 362,17 361,17 360,17 359,17 358,16 357,16 356,16 355,15 354,15 353,15 352,15 351,15 350,15 349,15 348,15 347,15 346,15 345,15 344,15 343,15 342,15 341,14 340,14 339,14 338,14 337,14 336,14 335,14 334,14 333,14 332,14 331,14 330,13 329,13 328,13 327,13 326,13 325,13 324,13 323,13 322,13 321,13 320,13 319,13 318,13 317,13 316,13 315,13 314,13 313,13 312,13 311,13 310,12 309,12 308,12 307,12 306,12 305,12 304,12 303,12 302,12 301,12 300,13 299,13 298,13 297,13 296,14 295,14 294,14 293,14 292,14 291,13 290,13 289,13 288,13 287,13 286,14 285,14 284,14 283,14 282,14 281,14 280,15 279,15 278,15 277,15 276,15 275,15 274,15 273,15 272,15 271,16 270,16 269,16 268,16 267,16 266,17 265,17 264,17 263,17 262,18 261,18 260,18 259,18 258,18 257,18 256,18 255,18 254,19 253,19 252,19 251,19 250,20 249,20 248,20 247,20 246,21 245,21 244,21 243,22 242,22 241,22 240,23 239,23 238,23 237,23 236,23 235,24 234,24 233,24 232,24 231,25 230,26 229,26 228,26 227,27 226,27 225,28 224,28 223,28 222,28 221,29 220,29 219,30 218,30 217,30 216,30 215,30 214,31 213,31 212,32 211,32 210,33 209,33 208,34 207,35 206,35 205,35 204,36 203,36 202,37 201,37 200,38 199,38 198,39 197,40 196,40 195,40 194,41 193,42 192,42 191,42 190,43 189,43 188,44 187,44 186,45 185,46 184,46 183,46 182,47 181,47 180,48 179,49 178,49 177,50 176,51 175,52 174,53 173,54 172,55 171,55 170,56 169,56 168,56 167,57 166,58 165,59 164,60 163,61 162,62 161,62 160,63 159,64 158,65 157,66 156,66 155,67 154,67 153,68 152,69 151,70 150,71 149,72 148,73 147,74 147,75 146,76 145,77 144,78 143,79 142,80 141,81 140,82 139,83 138,84 137,85 136,86 135,87 134,88 134,89 133,90 132,91 131,92 131,93 130,94 129,95 128,96 127,97 126,98 126,99 125,100 124,101 123,102 122,103 122,104 121,105 121,106 120,107 119,108 119,109 119,110 118,111 118,112 117,113 117,114 116,115 116,116 115,117 114,118 113,119 113,120 112,121 112,122 111,123 111,124 111,125 110,126 110,127 110,128 109,129 109,130 108,131 108,132 108,133 107,134 106,135 106,136 105,137 104,138 104,139 103,140 102,141 102,142 101,143 100,144 100,145 100,146 99,147 99,148 98,149 97,150 97,151 96,152 95,153 94,154 94,155 93,156 93,157 92,158 92,159 91,160 91,161 90,162 90,163 89,164 89,165 88,166 88,167 87,168 86,169 86,170 85,171 85,172 84,173 84,174 83,175 82,176 82,177 81,178 80,179 80,180 79,181 79,182 78,183 78,184 78,185 78,186 77,187 77,188 76,189 76,190 76,191 75,192 75,193 75,194 74,195 74,196 74,197 74,198 74,199 74,200 74,201 74,202 74,203 74,204 74,205 74,206 74,207 75,208 75,209 76,210 76,211 77,212 78,213 79,214 80,215 81,216 81,217 82,218 83,219 84,220 85,221 86,222 86,223 86,224 86,225 86,226 85,227 85,228 85,229 85,230 84,231 84,232 83,233 83,234 82,235 82,236 81,237 81,238 80,239 79,240 79,241 78,242 78,243 77,244 77,245 76,246 76,247 75,248 75,249 74,250 73,251 73,252 72,253 72,254 72,255 72,256 73,257 74,258 75,259 76,260 77,261 78,262 79,263 80,264 81,264 82,265 83,265 84,266 85,266 86,267 87,268 88,268 89,269 90,269 91,270 91,271 91,272 91,273 91,274 91,275 91,276 92,277 92,278 92,279 92,280 92,281 92,282 92,283 92,284 92,285 92,286 92,287 92,288 92,289 92,290 92,291 92,292 92,293 92,294 92,295 92,296 92,297 92,298 92,299 93,300 93,301 93,302 93,303 93,304 93,305 93,306 92,307 92,308 92,309 92,310 92,311 92,312 92,313 92,314 92,315 92,316 92,317 93,318 93,319 93,320 93,321 93,322 93,323 93,324 93,325 93,326 93,327 93,328 93,329 93,330 93,331 93,332 93,333 93,334 93,335 93,336 93,337 93,338 93,339 94,340 94,341 94,342 94,343 94,344 94,345 94,346 94,347 94,348 94,349 94,350 94,351 94,352 95,353 95,354 95,355 95,356 95,357 95,358 95,359 95,360 96,361 95,362 95,363 95,364 95,365 95,366 95,367 96,368 96,369 96,370 96,371 96,372 97,373 97,374 97,375 97,376 97,377 97,378 97,379 97,380 97,381 97,382 97,383 98,384 98,385 98,386 98,387 98,388 98,389 98,390 98,391 98,392 99,393 99,394 99,395 99,396 99,397 99,398 100,399 100,400 100,401 100,402 100,403 100,404 100,405 101,406 101,407 101,408 101,409 102,410 102,411 102,412 103,413 103,414 103,415 103,416 103,417 103,418 103,419 103,420 104,421 104,422 104,423 104,424 104,425 105,426 105,427 105,428 105,429 105,430 105,431 105,432 105,433 105,434 105,435 105,436 105,437 105,438 106,439 106,440 106,441 106,442 107,443 107,444 107,445 107,446 107,447 107,448 108,449 108,450 108,451 107,452 107,453 107,454 107,455 107,456 107,457 107,458 107,459 107,460 106,461 106,462 106,463 106,464 106,465 106,466 106,467 106,468 105,469 105,470 105,471 105,472 105,473 105,474 105,475 105,476 104,477 104,478 104,479 103,480 103,481 103,482 103,483 102,484 102,485 102,486 102,487 101,488 101,489 101,490 100,491 100,492 99,493 99,494 98,495 98,496 97,497 97,498 96,499 96,500 95,501 95,502 95,503 95,504 95,505 95,506 94,507 94,508 94,509 94,510 94,511 93,512 93,513 93,514 93,515 93,516 93,517 93,518 93,519 93,520 93,521 93,522 93,523 93,524 94,525 94,526 94,527 95,528 95,529 95,530 96,531 96,532 96,533 97,534 97,535 98,536 99,537 99,538 100,539 101,540 101,541 102,542 103,543 103,544 104,545 104,546 104,547 105,548 105,549 105,550 106,551 106,552 106,553 106,554 105,555 105,556 105,557 105,558 105,559 104,560 104,561 104,562 104,563 104,564 104,565 104,566 104,567 104,568 104,569 104,570 104,571 104,572 104,573 104,574 104,575 104,576 104,577 104,578 104,579 104,580 105,581 105,582 106,583 106,584 107,585 107,586 108,587 109,588 109,589 110,590 111,591 112,592 112,593 113,594 114,595 115,596 116,597 117,598 118,599 119,600 120,601 121,601 122,602 123,603 124,603 125,604 126,605 127,606 128,607 129,608 130,609 131,610 132,611 133,612 134,613 135,614 136,614 137,615 138,616 139,617 140,618 142,619 142,619 142,619 143,618 144,617 144,616 144,615 144,614 144,613 144,612 144,611 144,610 144,609 144,608 145,607 145,606 145,605 146,604 146,603 146,602 146,601 146,600 146,599 146,598 146,597 146,596 146,595 146,594 147,593 147,592 147,591 147,590 147,589 148,588 148,587 148,586 149,585 149,584 149,583 149,582 149,581 150,580 150,579 150,578 151,577 151,576 151,575 152,574 152,573 152,572 153,571 153,570 154,569 154,568 155,567 155,566 156,565 156,564 157,563 157,562 158,561 158,560 159,559 160,558 160,557 161,556 161,555 162,554 162,553 163,552 163,551 164,550 165,549 165,548 166,547 167,546 168,545 169,544 170,544 171,543 172,542 173,541 174,540 175,539 176,538 177,537 178,537 179,536 180,535 181,535 182,534 183,533 184,532 185,532 186,532 187,531 188,531 189,530 190,530 191,530 192,530 193,529 194,529 195,529 196,528 197,527 198,526 199,525 200,524 201,524 202,523 203,522 204,521 205,520 206,520 207,519 208,518 209,517 210,516 211,516 212,515 213,514 214,514 215,513 216,512 217,511 218,510 219,510 220,510 221,509 222,509 223,508 224,508 225,507 226,506 227,506 228,505 229,505 230,504 231,504 232,503 233,503 234,502 235,502 236,502 237,501 238,501 239,500 240,499 241,499 242,498 243,497 244,496 245,496 246,495 247,494 248,493 249,493 250,492 251,492 252,491 253,491 254,491 255,491 256,492 257,492 258,492 259,492 260,492 261,491 262,491 263,490 263,489 263,488 263,487 263,486 263,485 263,484 263,483 263,482 263,481 263,480 263,479 263,478 263,477 263,476 263,475 263,474 263,473 263,472 263,471 263,470 263,469 263,468 263,467 263,466 263,465 263,464 263,463 263,462 263,461 263,460 263,459 263,458 262,457 261,456 260,455 259,455 258,454 257,454 256,453 255,453 254,452 253,452 252,451 251,451 250,450 249,450 248,449 247,449 246,448 245,448 244,447 243,446 242,446 241,445 240,445 239,444 238,443 237,443 236,442 235,441 234,440 233,440 232,439 231,438 230,438 229,437 228,437 227,436 226,435 225,434 224,433 223,432 222,431 221,430 220,429 219,428 219,427 218,426 217,425 216,424 215,423 214,422 213,421 213,420 212,419 211,418 211,417 210,416 210,415 209,414 208,413 208,412 207,411 207,410 207,409 206,408 206,407 206,406 205,405 205,404 204,403 203,402 203,401 203,400 203,399 202,398 202,397 202,396 202,395 202,394 202,393 201,392 201,391 201,390 201,389 201,388 201,387 200,386 200,385 200,384 199,383 199,382 199,381 199,380 198,379 198,378 198,377 198,376 198,375 198,374 198,373 198,372 198,371 198,370 198,369 198,368 198,367 197,366 197,365 197,364 197,363 197,362 197,361 197,360 197,359 198,358 198,357 198,356 198,355 198,354 198,353 198,352 198,351 198,350 198,349 198,348 197,347 197,346 197,345 198,344 198,343 198,342 198,341 198,340 198,339 198,338 198,337 198,336 198,335 198,334 198,333 199,332 198,331 198,330 198,329 197,328 197,327 197,326 198,325 198,324 198,323 198,322 198,321 198,320 198,319 198,318 198,317 198,316 198,315 198,314 198,313 198,312 198,311 198,310 198,309 199,308 199,307 199,306 198,305 198,304 198,303 198,302 199,301 199,300 199,299 199,298 199,297 199,296 199,295 199,294 199,293 199,292 199,291 199,290 199,289 199,288 199,287 199,286 199,285 199,284 199,283 199,282 199,281 199,280 199,279 199,278 199,277 199,276 200,275 200,274 200,273 200,272 200,271 200,270 200,269 201,268 201,267 202,266 203,265 204,264 205,263 206,262 207,261 208,260 209,260 210,259 211,259 212,259 213,258 214,257 215,256 216,255 217,255 218,254 219,254 220,253 221,253 222,253 223,252 224,251 225,251 226,250 227,249 228,248 229,248 230,248 231,247 232,246 233,246 234,245 235,244 236,243 237,243 238,243 239,242 240,241 241,240 242,239 243,238 244,237 245,236 246,236 247,235 248,234 249,233 250,232 251,231 252,230 253,230 254,229 255,228 256,227 257,227 258,226 259,225 260,224 261,224 262,223 263,222 264,222 265,222 266,222 267,223 268,224 269,225 269,226 270,227 271,228 272,228 273,229 274,230 275,231 276,232 277,233 278,233 279,233 280,234 281,234 282,234 283,234 284,234 285,234 286,234 287,233 288,233 289,233 290,232 291,232 292,231 293,231 294,231 295,231 296,230 297,229 298,229 299,228 300,228 301,227 302,226 303,225 304,225 305,224 306,224 307,223 308,223 309,222 310,222 311,221 312,220 313,220 314,219 315,218 316,217 317,216 318,215 319,215 320,214 321,213 322,213 323,212 324,212 325,213 326,214 326,215 327,216 327,217 328,218 328,219 328,220 329,221 329,222 330,223 330,224 331,225 332,226 333,227 334,228 335,228 336,228 337,229 338,229 339,229 340,229 341,230 342,229 343,229 344,229 345,229 346,229 347,229 348,229 349,228 350,228 351,228 352,228 353,228 354,227 355,227 356,226 357,225 358,224 359,223 360,223 361,222 362,222 363,221 364,221 365,220 366,219 367,218 368,218 369,217 370,217 371,216 372,215 373,214 373,214" stroke="black" stroke-width="1" /><polyline fill="none" id="id_" points="142,619 142,619" stroke="gray" stroke-width="0.5" /><polyline fill="none" id="id_" points="377,209 377,209 377,210 378,211 378,212 379,213 379,214 380,215 381,216 381,217 381,218 382,219 382,220 382,221 383,222 383,223 384,224 384,225 385,226 386,227 387,227 388,228 389,228 390,228 391,228 392,228 393,228 394,228 395,228 396,228 397,228 398,228 399,228 400,227 401,227 402,227 403,227 404,226 405,226 406,226 407,225 408,224 409,224 410,223 411,222 412,222 413,221 414,221 415,220 416,220 417,219 418,218 419,217 420,216 421,215 422,214 423,214 424,213 425,213 426,213 427,213 428,213 429,213 430,213 431,213 432,213 433,213 434,213 435,213 436,213 437,214 438,214 439,214 440,214 441,214 442,214 443,215 444,215 445,215 446,215 447,216 448,216 449,216 450,216 451,216 452,216 453,217 454,217 455,217 456,217 457,217 458,218 459,218 460,218 461,218 462,218 463,218 464,217 465,217 466,216 466,215 466,214 466,213 466,212 466,211 465,210 464,209 463,208 462,208 461,208 460,208 459,207 458,207 457,206 456,206 455,206 454,206 453,205 452,205 451,205 450,204 449,204 448,204 447,204 446,204 445,204 444,204 443,203 442,203 441,203 440,203 439,203 438,203 437,203 436,203 435,203 434,202 434,201 434,200 434,199 435,198 436,197 436,196 437,195 437,194 437,193 438,192 438,191 439,190 439,189 440,188 440,187 440,186 441,185 441,184 441,183 442,182 442,181 442,180 443,179 443,178 443,177 443,176 444,175 444,174 444,173 444,172 444,171 444,170 444,169 444,168 445,167 445,166 445,165 446,164 446,163 446,162 446,161 447,160 446,159 446,158 446,157 446,156 446,155 446,154 446,153 446,152 446,151 447,150 447,149 447,148 447,147 447,146 447,145 447,144 447,143 447,142 448,141 449,140 450,140 451,140 452,141 453,141 454,142 454,143 455,144 455,145 456,146 457,147 458,148 459,149 460,150 461,151 462,152 463,153 463,154 464,155 464,156 465,157 465,158 466,159 467,160 467,161 468,162 469,163 469,164 470,165 470,166 470,167 471,168 471,169 472,170 472,171 472,172 473,173 473,174 474,175 475,176 475,177 475,178 476,179 476,180 476,181 477,182 477,183 477,184 478,185 478,186 479,187 479,188 479,189 480,190 480,191 481,192 481,193 481,194 481,195 481,196 482,197 482,198 482,199 482,200 482,201 483,202 483,203 483,204 483,205 484,206 484,207 484,208 485,209 485,210 485,211 485,212 486,213 486,214 486,215 486,216 486,217 486,218 487,219 487,220 487,221 487,222 488,223 488,224 488,225 488,226 489,227 489,228 489,229 489,230 489,231 489,232 489,233 489,234 489,235 489,236 489,237 489,238 490,239 490,240 490,241 490,242 490,243 490,244 491,245 491,246 491,247 491,248 491,249 491,250 491,251 491,252 491,253 492,254 492,255 492,256 492,257 492,258 492,259 492,260 493,261 493,262 493,263 493,264 494,265 494,266 494,267 494,268 494,269 494,270 494,271 494,272 494,273 495,274 495,275 495,276 495,277 495,278 495,279 494,280 494,281 494,282 494,283 495,284 495,285 495,286 495,287 495,288 496,289 496,290 496,291 496,292 496,293 496,294 496,295 496,296 495,297 495,298 495,299 495,300 496,301 495,302 495,303 495,304 495,305 495,306 495,307 495,308 495,309 495,310 495,311 495,312 495,313 495,314 495,315 495,316 495,317 495,318 495,319 495,320 495,321 495,322 495,323 495,324 495,325 495,326 495,327 495,328 495,329 496,330 496,331 498,332 498,332" stroke="black" stroke-width="1" /><polyline fill="none" id="id_" points="373,214 377,209" stroke="gray" stroke-width="0.5" /><polyline fill="none" id="id_" points="418,279 418,279 419,279 420,279 422,279 422,279 422,279 423,281 423,282 423,283 424,284 425,285 426,286 427,287 428,288 429,289 429,290 430,291 430,292 431,293 431,294 431,295 431,296 432,297 432,298 432,299 432,300 432,301 433,302 433,303 433,304 432,305 432,306 432,307 432,308 432,309 432,310 432,311 432,312 432,313 432,314 432,315 431,316 431,317 431,318 430,319 430,320 429,321 429,322 428,323 428,324 427,325 426,326 425,327 424,327 423,328 422,328 421,329 420,329 419,329 418,330 417,330 416,330 415,330 414,330 413,330 412,330 411,330 410,330 409,330 408,330 407,330 406,329 405,329 404,329 403,328 402,328 401,327 400,326 399,325 398,325 397,324 396,323 395,322 395,321 394,320 393,319 392,318 392,317 392,316 391,315 391,314 391,313 391,312 390,311 390,310 390,309 390,308 390,307 390,306 390,305 390,304 390,303 390,302 390,301 391,300 391,299 391,298 391,297 391,296 392,295 392,294 392,293 392,292 393,291 393,290 393,289 394,288 394,287 394,286 395,285 396,284 396,283 397,282 397,281 398,280 399,279 400,278 401,277 402,276 403,275 404,274 405,273 406,272 407,271 408,271 409,270 410,269 411,269 412,269 413,268 414,267 415,267 416,267 417,267 418,266 419,266 420,266 421,266 422,266 423,266 424,266 425,266 426,266 427,266 428,266 429,266 430,266 431,266 432,266 433,266 434,266 435,265 436,265 437,264 438,263 439,262 440,261 441,260 442,260 443,260 444,260 445,260 446,261 447,262 448,263 448,264 449,265 448,266 448,267 448,268 448,269 448,270 448,271 449,272 450,273 451,274 452,274 453,275 454,274 455,274 456,273 456,272 457,271 458,270 459,269 460,268 461,268 462,268 463,268 464,268 465,269 466,270 467,271 467,272 468,273 468,274 468,275 467,276 467,277 466,278 465,279 464,279 463,280 462,281 462,282 462,283 462,284 462,285 463,286 464,287 464,288 465,289 466,290 466,291 467,292 468,293 468,294 468,295 468,296 468,297 468,298 467,299 467,300 466,301 465,301 464,302 463,302 462,302 461,302 460,301 459,301 458,300 457,300 456,299 455,298 454,297 453,296 452,295 452,294 451,293 451,292 450,291 449,290 448,289 447,288 446,287 445,286 444,285 443,285 442,284 441,283 440,282 439,282 438,281 437,281 436,281 435,280 434,280 433,279 432,279 431,279 430,279 429,279 428,279 427,279 426,279 425,279 424,279 422,279 422,279" stroke="black" stroke-width="1" /><polyline fill="none" id="id_" points="498,332 418,279" stroke="gray" stroke-width="0.5" /><polyline fill="none" id="id_" points="362,360 362,360 362,361 363,362 364,363 365,363 366,363 367,363 368,363 369,362 369,361 368,360 368,359 368,358 367,357 366,357 365,357 364,358 363,359 362,360 362,360" stroke="red" stroke-width="1" /><polyline fill="none" id="id_" points="362,360 362,360 362,361 363,362 364,363 365,363 366,363 367,363 368,363 369,362 369,361 368,360 368,359 368,358 367,357 366,357 365,357 364,358 363,359 362,360 362,360" stroke="black" stroke-width="1" /><polyline fill="none" id="id_" points="278,280 278,280 279,278 280,279 281,279 282,279 283,279 284,279 285,279 286,279 287,279 288,279 289,279 290,280 291,280 292,280 293,281 294,281 295,282 296,283 297,283 298,283 299,284 300,285 301,286 302,287 303,288 304,289 305,290 306,290 307,291 308,292 309,293 310,294 311,295 311,296 312,297 313,298 314,299 315,300 316,301 317,302 318,302 319,302 320,302 321,301 322,300 323,300 324,299 325,298 325,297 325,296 325,295 325,294 325,293 324,292 324,291 323,290 322,289 322,288 321,287 320,286 320,285 319,284 319,283 319,282 319,281 319,280 320,279 320,278 321,277 321,276 322,275 322,274 322,273 321,272 321,271 321,270 320,269 319,268 318,268 317,268 316,268 315,268 314,269 313,270 312,271 311,272 311,273 310,274 309,274 308,274 307,274 306,274 305,273 304,272 303,271 302,270 302,269 302,268 302,267 302,266 303,265 303,264 304,263 304,262 303,261 302,260 301,259 300,258 299,258 298,258 297,258 296,259 295,260 294,261 293,262 293,263 293,264 292,265 291,266 290,266 289,266 288,265 287,265 286,265 285,265 284,265 283,265 282,266 281,266 280,266 279,266 278,266 277,266 276,266 275,266 274,266 273,266 272,267 271,267 270,267 269,267 268,268 267,269 266,269 265,270 264,270 263,271 262,272 261,273 260,273 259,274 258,275 257,276 256,277 255,278 254,279 253,280 252,281 251,282 251,283 250,284 249,285 249,286 248,287 248,288 248,289 247,290 247,291 247,292 247,293 247,294 246,295 246,296 246,297 246,298 245,299 245,300 245,301 245,302 245,303 244,304 244,305 244,306 244,307 244,308 244,309 244,310 245,311 245,312 245,313 246,314 246,315 247,316 247,317 248,318 248,319 249,320 250,321 251,322 252,323 253,324 254,325 255,326 256,327 257,327 258,328 259,328 260,329 261,329 262,330 263,330 264,330 265,330 266,330 267,331 268,331 269,331 270,330 271,330 272,330 273,330 274,330 275,329 276,329 277,329 278,328 279,327 280,327 281,326 282,325 283,324 284,323 285,322 285,321 286,320 286,319 286,318 287,317 288,316 288,315 288,314 289,313 289,312 289,311 289,310 289,309 289,308 289,307 289,306 289,305 289,304 289,303 289,302 289,301 289,300 289,299 289,298 288,297 288,296 288,295 287,294 287,293 286,292 286,291 285,290 284,289 284,288 284,287 283,286 282,285 281,284 280,283 279,283 278,282 278,281 278,280 278,280 278,280 277,279 278,280 278,280" stroke="red" stroke-width="1" /><polyline fill="none" id="id_" points="278,280 278,280 279,278 280,279 281,279 282,279 283,279 284,279 285,279 286,279 287,279 288,279 289,279 290,280 291,280 292,280 293,281 294,281 295,282 296,283 297,283 298,283 299,284 300,285 301,286 302,287 303,288 304,289 305,290 306,290 307,291 308,292 309,293 310,294 311,295 311,296 312,297 313,298 314,299 315,300 316,301 317,302 318,302 319,302 320,302 321,301 322,300 323,300 324,299 325,298 325,297 325,296 325,295 325,294 325,293 324,292 324,291 323,290 322,289 322,288 321,287 320,286 320,285 319,284 319,283 319,282 319,281 319,280 320,279 320,278 321,277 321,276 322,275 322,274 322,273 321,272 321,271 321,270 320,269 319,268 318,268 317,268 316,268 315,268 314,269 313,270 312,271 311,272 311,273 310,274 309,274 308,274 307,274 306,274 305,273 304,272 303,271 302,270 302,269 302,268 302,267 302,266 303,265 303,264 304,263 304,262 303,261 302,260 301,259 300,258 299,258 298,258 297,258 296,259 295,260 294,261 293,262 293,263 293,264 292,265 291,266 290,266 289,266 288,265 287,265 286,265 285,265 284,265 283,265 282,266 281,266 280,266 279,266 278,266 277,266 276,266 275,266 274,266 273,266 272,267 271,267 270,267 269,267 268,268 267,269 266,269 265,270 264,270 263,271 262,272 261,273 260,273 259,274 258,275 257,276 256,277 255,278 254,279 253,280 252,281 251,282 251,283 250,284 249,285 249,286 248,287 248,288 248,289 247,290 247,291 247,292 247,293 247,294 246,295 246,296 246,297 246,298 245,299 245,300 245,301 245,302 245,303 244,304 244,305 244,306 244,307 244,308 244,309 244,310 245,311 245,312 245,313 246,314 246,315 247,316 247,317 248,318 248,319 249,320 250,321 251,322 252,323 253,324 254,325 255,326 256,327 257,327 258,328 259,328 260,329 261,329 262,330 263,330 264,330 265,330 266,330 267,331 268,331 269,331 270,330 271,330 272,330 273,330 274,330 275,329 276,329 277,329 278,328 279,327 280,327 281,326 282,325 283,324 284,323 285,322 285,321 286,320 286,319 286,318 287,317 288,316 288,315 288,314 289,313 289,312 289,311 289,310 289,309 289,308 289,307 289,306 289,305 289,304 289,303 289,302 289,301 289,300 289,299 289,298 288,297 288,296 288,295 287,294 287,293 286,292 286,291 285,290 284,289 284,288 284,287 283,286 282,285 281,284 280,283 279,283 278,282 278,281 278,280 278,280 278,280 277,279 278,280 278,280" stroke="black" stroke-width="1" /><polyline fill="none" id="id_" points="115,314 115,314 115,315 115,316 115,317 115,318 115,319 115,320 115,321 115,322 115,323 115,324 115,325 115,326 115,327 115,328 115,329 115,330 115,331 115,332 115,333 115,334 115,335 115,336 115,337 115,338 116,339 116,340 116,341 117,342 117,343 117,344 118,345 118,346 119,347 119,348 120,349 121,350 121,351 122,352 123,353 123,354 124,355 125,356 126,357 127,358 128,359 129,360 130,361 131,362 132,362 133,363 134,363 135,363 136,364 137,364 138,365 139,365 140,366 141,366 142,367 143,367 144,367 145,367 146,368 147,368 148,368 149,368 150,368 151,368 152,368 153,368 154,368 155,368 156,367 156,366 156,365 157,364 157,363 157,362 157,361 157,360 157,359 157,358 156,357 156,356 156,355 156,354 156,353 156,352 156,351 156,350 156,349 156,348 156,347 156,346 156,345 157,344 156,343 156,342 156,341 156,340 156,339 156,338 157,337 157,336 157,335 157,334 157,333 157,332 157,331 157,330 157,329 157,328 157,327 157,326 157,325 157,324 157,323 157,322 156,321 156,320 156,319 156,318 156,317 156,316 156,315 156,314 156,313 156,312 156,311 156,310 156,309 156,308 156,307 156,306 156,305 156,304 156,303 156,302 156,301 156,300 156,299 155,298 155,297 155,296 155,295 155,294 155,293 155,292 155,291 155,290 154,289 154,288 154,287 154,286 154,285 154,284 154,283 153,282 152,281 151,280 150,280 149,280 148,280 147,281 146,281 145,281 144,281 143,282 142,282 141,282 140,283 139,283 138,284 137,284 136,285 135,285 134,286 133,286 132,287 132,288 131,289 130,289 129,290 128,291 127,292 127,293 126,294 125,295 124,296 124,297 123,298 122,299 121,300 121,301 120,302 120,303 119,304 119,305 119,306 118,307 118,308 118,309 117,310 117,311 116,312 116,313 115,314 115,314" stroke="red" stroke-width="1" /><polyline fill="none" id="id_" points="115,314 115,314 115,315 115,316 115,317 115,318 115,319 115,320 115,321 115,322 115,323 115,324 115,325 115,326 115,327 115,328 115,329 115,330 115,331 115,332 115,333 115,334 115,335 115,336 115,337 115,338 116,339 116,340 116,341 117,342 117,343 117,344 118,345 118,346 119,347 119,348 120,349 121,350 121,351 122,352 123,353 123,354 124,355 125,356 126,357 127,358 128,359 129,360 130,361 131,362 132,362 133,363 134,363 135,363 136,364 137,364 138,365 139,365 140,366 141,366 142,367 143,367 144,367 145,367 146,368 147,368 148,368 149,368 150,368 151,368 152,368 153,368 154,368 155,368 156,367 156,366 156,365 157,364 157,363 157,362 157,361 157,360 157,359 157,358 156,357 156,356 156,355 156,354 156,353 156,352 156,351 156,350 156,349 156,348 156,347 156,346 156,345 157,344 156,343 156,342 156,341 156,340 156,339 156,338 157,337 157,336 157,335 157,334 157,333 157,332 157,331 157,330 157,329 157,328 157,327 157,326 157,325 157,324 157,323 157,322 156,321 156,320 156,319 156,318 156,317 156,316 156,315 156,314 156,313 156,312 156,311 156,310 156,309 156,308 156,307 156,306 156,305 156,304 156,303 156,302 156,301 156,300 156,299 155,298 155,297 155,296 155,295 155,294 155,293 155,292 155,291 155,290 154,289 154,288 154,287 154,286 154,285 154,284 154,283 153,282 152,281 151,280 150,280 149,280 148,280 147,281 146,281 145,281 144,281 143,282 142,282 141,282 140,283 139,283 138,284 137,284 136,285 135,285 134,286 133,286 132,287 132,288 131,289 130,289 129,290 128,291 127,292 127,293 126,294 125,295 124,296 124,297 123,298 122,299 121,300 121,301 120,302 120,303 119,304 119,305 119,306 118,307 118,308 118,309 117,310 117,311 116,312 116,313 115,314 115,314" stroke="black" stroke-width="1" /><polyline fill="none" id="id_" points="133,399 133,399 133,400 133,401 133,402 133,403 133,404 134,405 134,406 134,407 135,408 136,409 137,410 138,411 139,412 140,412 141,413 142,413 143,414 144,414 145,414 146,415 147,415 148,415 149,415 150,415 151,415 152,415 153,415 154,414 155,414 156,414 157,413 158,413 159,412 160,412 161,411 162,410 162,409 163,408 163,407 163,406 164,405 164,404 164,403 165,402 165,401 165,400 165,399 164,398 164,397 164,396 164,395 164,394 163,393 162,392 162,391 161,390 160,389 159,388 158,387 157,386 156,386 155,386 154,386 153,386 152,386 151,385 150,385 149,385 148,385 147,385 146,386 145,386 144,386 143,387 142,388 141,388 140,389 139,390 138,391 137,392 136,393 136,394 135,395 135,396 134,397 134,398 133,399 133,399" stroke="red" stroke-width="1" /><polyline fill="none" id="id_" points="133,399 133,399 133,400 133,401 133,402 133,403 133,404 134,405 134,406 134,407 135,408 136,409 137,410 138,411 139,412 140,412 141,413 142,413 143,414 144,414 145,414 146,415 147,415 148,415 149,415 150,415 151,415 152,415 153,415 154,414 155,414 156,414 157,413 158,413 159,412 160,412 161,411 162,410 162,409 163,408 163,407 163,406 164,405 164,404 164,403 165,402 165,401 165,400 165,399 164,398 164,397 164,396 164,395 164,394 163,393 162,392 162,391 161,390 160,389 159,388 158,387 157,386 156,386 155,386 154,386 153,386 152,386 151,385 150,385 149,385 148,385 147,385 146,386 145,386 144,386 143,387 142,388 141,388 140,389 139,390 138,391 137,392 136,393 136,394 135,395 135,396 134,397 134,398 133,399 133,399" stroke="black" stroke-width="1" /><polyline fill="none" id="id_" points="319,402 319,402 319,403 319,404 319,405 319,406 319,407 320,408 320,409 321,410 321,411 322,412 323,413 324,414 325,415 326,415 327,416 328,417 329,418 330,419 331,419 332,420 333,420 334,420 335,420 336,421 337,421 338,422 339,423 340,423 341,423 342,423 343,424 344,424 345,424 346,424 347,424 348,424 349,424 350,424 351,424 352,424 353,424 354,423 355,423 356,423 357,423 358,422 359,422 360,421 361,421 362,420 363,420 364,420 365,419 366,418 367,417 368,417 369,416 370,415 371,414 371,413 372,412 372,411 373,410 374,409 374,408 375,407 375,406 376,405 376,404 376,403 375,402 374,401 373,402 372,402 371,402 370,403 370,404 369,405 368,406 367,407 366,408 365,408 364,409 363,410 362,411 361,412 360,412 359,413 358,413 357,414 356,415 355,415 354,415 353,416 352,416 351,416 350,416 349,417 348,417 347,417 346,418 345,418 344,418 343,418 342,417 341,416 340,415 339,415 338,414 337,414 336,413 335,413 334,412 333,411 332,410 331,410 330,409 329,408 328,407 327,406 326,405 325,404 325,403 324,402 323,401 322,401 321,401 320,401 319,402 319,402" stroke="red" stroke-width="1" /><polyline fill="none" id="id_" points="319,402 319,402 319,403 319,404 319,405 319,406 319,407 320,408 320,409 321,410 321,411 322,412 323,413 324,414 325,415 326,415 327,416 328,417 329,418 330,419 331,419 332,420 333,420 334,420 335,420 336,421 337,421 338,422 339,423 340,423 341,423 342,423 343,424 344,424 345,424 346,424 347,424 348,424 349,424 350,424 351,424 352,424 353,424 354,423 355,423 356,423 357,423 358,422 359,422 360,421 361,421 362,420 363,420 364,420 365,419 366,418 367,417 368,417 369,416 370,415 371,414 371,413 372,412 372,411 373,410 374,409 374,408 375,407 375,406 376,405 376,404 376,403 375,402 374,401 373,402 372,402 371,402 370,403 370,404 369,405 368,406 367,407 366,408 365,408 364,409 363,410 362,411 361,412 360,412 359,413 358,413 357,414 356,415 355,415 354,415 353,416 352,416 351,416 350,416 349,417 348,417 347,417 346,418 345,418 344,418 343,418 342,417 341,416 340,415 339,415 338,414 337,414 336,413 335,413 334,412 333,411 332,410 331,410 330,409 329,408 328,407 327,406 326,405 325,404 325,403 324,402 323,401 322,401 321,401 320,401 319,402 319,402" stroke="black" stroke-width="1" /><polyline fill="none" id="id_" points="386,467 386,467 387,467 388,467 389,467 390,467 391,467 392,466 393,466 394,466 395,466 396,466 397,465 398,465 399,465 400,465 401,465 402,465 403,465 404,464 405,463 406,463 407,463 408,462 409,462 410,462 411,461 412,461 413,461 414,461 415,460 416,460 417,460 418,459 419,459 420,459 421,458 422,458 423,458 424,457 425,457 426,456 427,455 428,455 429,454 430,454 431,453 432,453 433,453 434,453 435,453 436,452 437,452 438,452 439,451 440,450 441,449 442,448 443,447 444,447 445,446 446,446 447,445 448,444 449,443 450,443 451,442 452,442 453,441 454,440 455,439 456,439 457,439 458,439 459,439 459,439" stroke="black" stroke-width="1" /><polyline fill="none" id="id_" points="319,402 386,467" stroke="gray" stroke-width="0.5" /><polyline fill="none" id="id_" points="382,470 382,470 381,471 381,472 381,473 381,474 380,475 380,476 380,477 380,478 380,479 381,480 381,481 381,482 382,483 382,484 382,485 383,486 383,487 383,488 383,489 383,490 382,491 382,492 382,493 382,494 382,495 383,496 384,497 385,498 386,498 387,498 388,498 389,498 390,498 391,498 392,499 393,499 394,499 395,500 396,500 397,501 398,501 399,502 400,502 401,503 402,504 403,504 404,504 405,505 406,505 407,506 408,507 409,508 409,509 408,510 408,511 407,512 406,513 405,514 405,515 405,516 404,517 404,518 404,519 404,520 404,521 404,522 403,523 403,524 402,525 402,526 402,527 402,528 402,529 402,530 401,531 401,532 400,533 400,534 399,535 399,536 399,537 398,538 398,539 397,540 397,541 397,542 396,543 396,544 395,545 395,546 394,547 394,548 393,549 393,550 392,551 391,552 390,553 389,553 388,554 387,554 386,555 386,556 385,557 384,558 383,559 382,560 381,561 380,562 379,562 378,562 377,562 376,562 375,562 374,562 373,561 372,561 371,561 370,560 369,560 368,560 367,560 366,560 365,559 364,559 363,559 362,558 361,557 360,557 359,556 358,555 357,555 356,554 355,553 354,552 353,551 352,551 351,550 350,549 349,548 348,547 347,546 346,545 345,544 344,543 343,543 342,542 341,541 340,541 339,540 338,539 337,539 336,538 335,538 334,538 333,538 332,538 331,538 330,539 329,539 328,540 327,541 326,541 325,542 324,543 323,544 322,545 321,545 320,546 319,547 318,548 317,549 316,550 315,551 314,551 313,552 312,553 311,554 310,554 309,554 308,555 307,555 306,556 305,556 304,556 303,557 302,557 301,558 300,559 299,559 298,559 297,560 296,560 295,560 294,560 293,560 292,560 291,560 290,560 289,560 288,560 287,560 286,560 285,559 284,559 283,559 282,558 281,558 280,557 279,556 278,556 277,555 276,554 275,553 274,552 273,551 272,550 271,549 270,548 269,547 268,546 268,545 267,544 266,543 266,542 265,541 264,540 263,539 262,538 262,537 261,536 260,535 259,534 258,533 257,532 257,531 256,530 256,529 255,528 254,527 254,526 253,525 253,524 252,523 251,522 251,521 250,520 250,519 249,518 248,517 248,516 247,515 247,514 246,513 246,512 245,511 244,510 243,509 242,508 241,508 240,508 239,509 238,510 238,511 238,512 238,513 238,514 239,515 239,516 239,517 239,518 240,519 241,520 241,521 242,522 243,523 243,524 243,525 244,526 244,527 245,528 246,529 246,530 247,531 248,532 248,533 249,534 249,535 250,536 250,537 251,538 252,539 253,540 254,541 255,542 256,543 256,544 257,545 257,546 258,547 258,548 259,549 260,550 261,551 262,552 263,553 264,554 265,555 266,556 267,557 268,558 269,559 270,559 271,560 272,561 273,562 274,563 275,563 276,564 277,565 278,566 279,566 280,567 281,567 282,568 283,568 284,568 285,568 286,569 287,569 288,569 289,569 290,570 291,569 292,569 293,569 294,569 295,568 296,568 297,568 298,568 299,569 299,570 299,571 298,572 298,573 297,574 296,575 295,576 295,577 294,578 293,579 293,580 292,581 291,582 290,583 290,584 289,585 289,586 288,587 287,588 286,589 286,590 285,591 285,592 284,593 284,594 284,595 284,596 284,597 284,598 284,599 284,600 284,601 284,602 285,603 286,604 287,604 288,605 289,606 290,606 291,607 292,607 293,608 294,608 295,609 296,609 297,610 298,611 299,612 300,613 300,614 300,615 300,616 300,617 299,618 299,619 299,620 299,621 298,622 298,623 297,624 297,625 297,626 297,627 296,628 296,629 296,630 296,631 296,632 296,633 296,634 296,635 295,636 295,637 295,638 295,639 295,640 296,641 297,642 298,642 299,643 300,643 301,643 302,643 303,643 304,643 305,643 306,644 307,644 308,644 309,644 310,644 311,644 312,644 313,644 314,645 315,645 316,645 317,645 318,645 319,645 320,645 321,645 322,644 322,643 323,642 323,641 323,640 324,639 324,638 324,637 324,636 324,635 324,634 324,633 325,632 325,631 325,630 325,629 325,628 325,627 325,626 325,625 325,624 326,623 326,622 326,621 326,620 326,619 327,618 327,617 327,616 327,615 327,614 327,613 327,612 327,611 327,610 327,609 327,608 328,607 328,606 328,605 328,604 328,603 328,602 328,601 328,600 328,599 328,598 328,597 328,596 328,595 328,594 329,593 330,592 331,591 332,591 333,591 334,592 334,593 334,594 335,595 335,596 335,597 335,598 335,599 335,600 335,601 336,602 336,603 336,604 336,605 336,606 336,607 336,608 336,609 337,610 337,611 337,612 337,613 337,614 337,615 337,616 337,617 338,618 338,619 338,620 338,621 338,622 338,623 338,624 338,625 338,626 338,627 338,628 338,629 339,630 339,631 339,632 339,633 339,634 339,635 340,636 340,637 340,638 340,639 340,640 340,641 341,642 342,643 343,644 344,644 345,644 346,644 347,644 348,644 349,644 350,645 351,645 352,645 353,645 354,645 355,645 356,645 357,644 358,643 359,643 360,643 361,643 362,643 363,643 364,643 365,643 366,642 367,642 368,641 368,640 369,639 369,638 369,637 368,636 368,635 368,634 367,633 367,632 367,631 367,630 367,629 367,628 367,627 367,626 367,625 366,624 366,623 365,622 365,621 364,620 364,619 364,618 364,617 364,616 364,615 364,614 365,613 366,612 367,611 368,610 369,610 370,610 371,610 372,609 373,608 374,607 375,606 376,606 377,606 378,606 379,605 380,605 381,604 382,603 383,602 383,601 384,600 384,599 384,598 384,597 384,596 384,595 384,594 383,593 383,592 382,591 382,590 381,589 381,588 380,587 380,586 379,585 378,584 377,583 377,582 376,581 375,580 374,579 374,578 373,577 372,576 372,575 372,574 372,573 371,571 371,571 371,571 373,571 374,571 375,570 376,570 377,570 378,570 379,570 380,569 381,569 382,569 383,569 384,569 385,568 386,567 387,567 388,567 389,566 390,565 391,564 392,563 393,562 394,561 395,560 396,559 397,558 397,557 398,556 399,555 400,554 401,553 401,552 402,551 402,550 403,549 403,548 404,547 404,546 405,545 405,544 406,543 406,542 406,541 407,540 407,539 407,538 407,537 408,536 408,535 409,534 409,533 409,532 409,531 410,530 410,529 410,528 410,527 410,526 411,525 411,524 411,523 412,522 412,521 412,520 412,519 413,518 413,517 413,516 413,514 413,514 413,514 415,513 416,513 417,513 418,513 419,513 420,514 421,515 422,516 423,516 424,517 425,517 426,518 427,519 428,520 429,520 430,521 431,522 432,523 433,524 434,524 435,525 436,526 437,526 438,527 439,528 440,528 441,529 442,530 443,531 444,532 445,532 446,533 447,534 448,534 449,535 450,536 451,537 452,538 453,539 454,540 455,541 456,542 457,542 459,542 459,542" stroke="black" stroke-width="1" /><polyline fill="none" id="id_" points="459,439 382,470" stroke="gray" stroke-width="0.5" /><polyline fill="none" id="id_" points="331,656 331,656 331,657 331,658 331,659 331,660 331,661 332,662 333,663 334,663 335,663 336,664 337,664 338,663 339,663 340,663 341,662 342,661 343,660 343,659 343,658 343,657 343,656 342,655 341,654 340,653 339,652 338,652 337,652 336,652 335,652 334,652 333,653 332,654 332,655 331,656 331,656" stroke="red" stroke-width="1" /><polyline fill="none" id="id_" points="331,656 331,656 331,657 331,658 331,659 331,660 331,661 332,662 333,663 334,663 335,663 336,664 337,664 338,663 339,663 340,663 341,662 342,661 343,660 343,659 343,658 343,657 343,656 342,655 341,654 340,653 339,652 338,652 337,652 336,652 335,652 334,652 333,653 332,654 332,655 331,656 331,656" stroke="black" stroke-width="1" /><polyline fill="none" id="id_" points="329,705 329,705 329,706 329,707 329,708 330,709 331,710 332,711 333,711 334,711 335,712 336,712 337,712 338,711 339,711 340,711 341,710 341,709 341,708 342,707 342,706 342,705 342,704 342,703 341,702 341,701 340,700 339,699 338,699 337,699 336,699 335,700 334,700 333,700 332,701 331,701 330,702 330,703 330,704 329,705 329,705" stroke="red" stroke-width="1" /><polyline fill="none" id="id_" points="329,705 329,705 329,706 329,707 329,708 330,709 331,710 332,711 333,711 334,711 335,712 336,712 337,712 338,711 339,711 340,711 341,710 341,709 341,708 342,707 342,706 342,705 342,704 342,703 341,702 341,701 340,700 339,699 338,699 337,699 336,699 335,700 334,700 333,700 332,701 331,701 330,702 330,703 330,704 329,705 329,705" stroke="black" stroke-width="1" /></svg>